<svg width="166" height="49" viewBox="0 0 166 49" fill="none" xmlns="http://www.w3.org/2000/svg">
<path d="M61.0114 30V18.3636H68.7159V20.392H63.4716V23.1648H68.2045V25.1932H63.4716V30H61.0114ZM72.9006 30.142C72.2377 30.142 71.6373 29.9716 71.0994 29.6307C70.5653 29.286 70.1411 28.7803 69.8267 28.1136C69.5161 27.4432 69.3608 26.6212 69.3608 25.6477C69.3608 24.6477 69.5218 23.8163 69.8438 23.1534C70.1657 22.4867 70.5938 21.9886 71.1278 21.6591C71.6657 21.3258 72.2547 21.1591 72.8949 21.1591C73.3835 21.1591 73.7907 21.2424 74.1165 21.4091C74.446 21.572 74.7112 21.7765 74.9119 22.0227C75.1165 22.2652 75.2718 22.5038 75.3778 22.7386H75.4517V21.2727H77.8665V30H75.4801V28.6023H75.3778C75.2642 28.8447 75.1032 29.0852 74.8949 29.3239C74.6903 29.5587 74.4233 29.7538 74.0938 29.9091C73.768 30.0644 73.3703 30.142 72.9006 30.142ZM73.6676 28.2159C74.0578 28.2159 74.3873 28.1098 74.6562 27.8977C74.929 27.6818 75.1373 27.3807 75.2812 26.9943C75.429 26.608 75.5028 26.1553 75.5028 25.6364C75.5028 25.1174 75.4309 24.6667 75.2869 24.2841C75.143 23.9015 74.9347 23.6061 74.6619 23.3977C74.3892 23.1894 74.0578 23.0852 73.6676 23.0852C73.2699 23.0852 72.9347 23.1932 72.6619 23.4091C72.3892 23.625 72.1828 23.9242 72.0426 24.3068C71.9025 24.6894 71.8324 25.1326 71.8324 25.6364C71.8324 26.1439 71.9025 26.5928 72.0426 26.983C72.1866 27.3693 72.393 27.6723 72.6619 27.892C72.9347 28.108 73.2699 28.2159 73.6676 28.2159ZM82.277 24.9545V30H79.8565V18.3636H82.2088V22.8125H82.3111C82.508 22.2973 82.8262 21.8939 83.2656 21.6023C83.705 21.3068 84.2562 21.1591 84.919 21.1591C85.5251 21.1591 86.0535 21.2917 86.5043 21.5568C86.9588 21.8182 87.3111 22.1951 87.5611 22.6875C87.8149 23.1761 87.9399 23.7614 87.9361 24.4432V30H85.5156V24.875C85.5194 24.3371 85.383 23.9186 85.1065 23.6193C84.8338 23.3201 84.4512 23.1705 83.9588 23.1705C83.6293 23.1705 83.3376 23.2405 83.0838 23.3807C82.8338 23.5208 82.6368 23.7254 82.4929 23.9943C82.3527 24.2595 82.2808 24.5795 82.277 24.9545ZM89.8409 30V21.2727H92.2614V30H89.8409ZM91.0568 20.1477C90.697 20.1477 90.3883 20.0284 90.1307 19.7898C89.8769 19.5473 89.75 19.2576 89.75 18.9205C89.75 18.5871 89.8769 18.3011 90.1307 18.0625C90.3883 17.8201 90.697 17.6989 91.0568 17.6989C91.4167 17.6989 91.7235 17.8201 91.9773 18.0625C92.2348 18.3011 92.3636 18.5871 92.3636 18.9205C92.3636 19.2576 92.2348 19.5473 91.9773 19.7898C91.7235 20.0284 91.4167 20.1477 91.0568 20.1477ZM94.2003 30V21.2727H96.5071V22.8125H96.6094C96.7912 22.3011 97.0942 21.8977 97.5185 21.6023C97.9427 21.3068 98.4503 21.1591 99.0412 21.1591C99.6397 21.1591 100.149 21.3087 100.57 21.608C100.99 21.9034 101.27 22.3049 101.411 22.8125H101.501C101.679 22.3125 102.001 21.9129 102.467 21.6136C102.937 21.3106 103.492 21.1591 104.132 21.1591C104.946 21.1591 105.607 21.4186 106.115 21.9375C106.626 22.4527 106.882 23.1837 106.882 24.1307V30H104.467V24.608C104.467 24.1231 104.339 23.7595 104.081 23.517C103.823 23.2746 103.501 23.1534 103.115 23.1534C102.676 23.1534 102.333 23.2936 102.087 23.5739C101.84 23.8504 101.717 24.2159 101.717 24.6705V30H99.3707V24.5568C99.3707 24.1288 99.2476 23.7879 99.0014 23.5341C98.759 23.2803 98.4389 23.1534 98.0412 23.1534C97.7723 23.1534 97.5298 23.2216 97.3139 23.358C97.1018 23.4905 96.9332 23.678 96.8082 23.9205C96.6832 24.1591 96.6207 24.4394 96.6207 24.7614V30H94.2003ZM108.839 30V18.3636H116.68V20.392H111.3V23.1648H116.277V25.1932H111.3V27.9716H116.703V30H108.839ZM121.011 24.9545V30H118.591V21.2727H120.898V22.8125H121C121.193 22.3049 121.517 21.9034 121.972 21.608C122.426 21.3087 122.977 21.1591 123.625 21.1591C124.231 21.1591 124.759 21.2917 125.21 21.5568C125.661 21.822 126.011 22.2008 126.261 22.6932C126.511 23.1818 126.636 23.7652 126.636 24.4432V30H124.216V24.875C124.22 24.3409 124.083 23.9242 123.807 23.625C123.53 23.322 123.15 23.1705 122.665 23.1705C122.339 23.1705 122.051 23.2405 121.801 23.3807C121.555 23.5208 121.362 23.7254 121.222 23.9943C121.085 24.2595 121.015 24.5795 121.011 24.9545ZM132.476 33.4545C131.692 33.4545 131.019 33.3466 130.459 33.1307C129.902 32.9186 129.459 32.6288 129.129 32.2614C128.8 31.8939 128.586 31.4811 128.487 31.0227L130.726 30.7216C130.794 30.8958 130.902 31.0587 131.05 31.2102C131.197 31.3617 131.393 31.483 131.635 31.5739C131.881 31.6686 132.18 31.7159 132.533 31.7159C133.059 31.7159 133.493 31.5871 133.834 31.3295C134.179 31.0758 134.351 30.6496 134.351 30.0511V28.4545H134.249C134.143 28.697 133.983 28.9261 133.771 29.142C133.559 29.358 133.286 29.5341 132.953 29.6705C132.62 29.8068 132.222 29.875 131.76 29.875C131.105 29.875 130.508 29.7235 129.97 29.4205C129.436 29.1136 129.01 28.6458 128.692 28.017C128.377 27.3845 128.22 26.5852 128.22 25.6193C128.22 24.6307 128.381 23.8049 128.703 23.142C129.025 22.4792 129.453 21.983 129.987 21.6534C130.525 21.3239 131.114 21.1591 131.754 21.1591C132.243 21.1591 132.652 21.2424 132.982 21.4091C133.311 21.572 133.576 21.7765 133.777 22.0227C133.982 22.2652 134.139 22.5038 134.249 22.7386H134.339V21.2727H136.743V30.0852C136.743 30.8277 136.561 31.4489 136.197 31.9489C135.834 32.4489 135.33 32.8239 134.686 33.0739C134.046 33.3277 133.309 33.4545 132.476 33.4545ZM132.527 28.0568C132.917 28.0568 133.247 27.9602 133.516 27.767C133.788 27.5701 133.997 27.2898 134.141 26.9261C134.288 26.5587 134.362 26.1193 134.362 25.608C134.362 25.0966 134.29 24.6534 134.146 24.2784C134.002 23.8996 133.794 23.6061 133.521 23.3977C133.249 23.1894 132.917 23.0852 132.527 23.0852C132.129 23.0852 131.794 23.1932 131.521 23.4091C131.249 23.6212 131.042 23.9167 130.902 24.2955C130.762 24.6742 130.692 25.1117 130.692 25.608C130.692 26.1117 130.762 26.5473 130.902 26.9148C131.046 27.2784 131.252 27.5606 131.521 27.7614C131.794 27.9583 132.129 28.0568 132.527 28.0568ZM141.089 18.3636V30H138.669V18.3636H141.089ZM143.028 30V21.2727H145.449V30H143.028ZM144.244 20.1477C143.884 20.1477 143.576 20.0284 143.318 19.7898C143.064 19.5473 142.938 19.2576 142.938 18.9205C142.938 18.5871 143.064 18.3011 143.318 18.0625C143.576 17.8201 143.884 17.6989 144.244 17.6989C144.604 17.6989 144.911 17.8201 145.165 18.0625C145.422 18.3011 145.551 18.5871 145.551 18.9205C145.551 19.2576 145.422 19.5473 145.165 19.7898C144.911 20.0284 144.604 20.1477 144.244 20.1477ZM154.649 23.7614L152.433 23.8977C152.395 23.7083 152.314 23.5379 152.189 23.3864C152.064 23.2311 151.899 23.108 151.695 23.017C151.494 22.9223 151.253 22.875 150.973 22.875C150.598 22.875 150.282 22.9545 150.024 23.1136C149.767 23.2689 149.638 23.4773 149.638 23.7386C149.638 23.947 149.721 24.1231 149.888 24.267C150.054 24.411 150.34 24.5265 150.746 24.6136L152.325 24.9318C153.174 25.1061 153.806 25.3864 154.223 25.7727C154.64 26.1591 154.848 26.6667 154.848 27.2955C154.848 27.8674 154.679 28.3693 154.342 28.8011C154.009 29.233 153.551 29.5701 152.967 29.8125C152.388 30.0511 151.719 30.1705 150.962 30.1705C149.806 30.1705 148.886 29.9299 148.2 29.4489C147.518 28.964 147.119 28.3049 147.001 27.4716L149.382 27.3466C149.454 27.6989 149.628 27.9678 149.905 28.1534C150.181 28.3352 150.536 28.4261 150.967 28.4261C151.392 28.4261 151.732 28.3447 151.99 28.1818C152.251 28.0152 152.384 27.8011 152.388 27.5398C152.384 27.3201 152.291 27.1402 152.109 27C151.928 26.8561 151.647 26.7462 151.268 26.6705L149.757 26.3693C148.905 26.1989 148.27 25.9034 147.854 25.483C147.441 25.0625 147.234 24.5265 147.234 23.875C147.234 23.3144 147.386 22.8314 147.689 22.4261C147.996 22.0208 148.426 21.7083 148.979 21.4886C149.536 21.2689 150.187 21.1591 150.933 21.1591C152.036 21.1591 152.903 21.392 153.536 21.858C154.172 22.3239 154.543 22.9583 154.649 23.7614ZM158.793 24.9545V30H156.372V18.3636H158.724V22.8125H158.827C159.024 22.2973 159.342 21.8939 159.781 21.6023C160.221 21.3068 160.772 21.1591 161.435 21.1591C162.041 21.1591 162.569 21.2917 163.02 21.5568C163.474 21.8182 163.827 22.1951 164.077 22.6875C164.33 23.1761 164.455 23.7614 164.452 24.4432V30H162.031V24.875C162.035 24.3371 161.899 23.9186 161.622 23.6193C161.349 23.3201 160.967 23.1705 160.474 23.1705C160.145 23.1705 159.853 23.2405 159.599 23.3807C159.349 23.5208 159.152 23.7254 159.009 23.9943C158.868 24.2595 158.796 24.5795 158.793 24.9545Z" fill="#EEA02B"/>
<path d="M24.0008 48.0047C10.747 48.0047 0 37.2577 0 24.0039H24.0008V48.0047Z" fill="#EEA02B"/>
<path d="M0 0C13.2538 0 24.0008 10.747 24.0008 24.0008H0V0Z" fill="#FFD9A0"/>
<path d="M24 48.0047C37.2538 48.0047 48.0008 37.2577 48.0008 24.0039H24V48.0047Z" fill="#EEA02B"/>
<path d="M48.0008 24.0008C48.0008 10.747 37.2538 0 24 0V24.0008H48.0008Z" fill="#EEA02B"/>
</svg>
